<svg version="1.1" viewBox="0.0 0.0 421.5485564304462 142.08661417322836" fill="none" stroke="none" stroke-linecap="square" stroke-miterlimit="10" xmlns:xlink="http://www.w3.org/1999/xlink" xmlns="http://www.w3.org/2000/svg"><clipPath id="p.0"><path d="m0 0l421.54855 0l0 142.08661l-421.54855 0l0 -142.08661z" clip-rule="nonzero"/></clipPath><g clip-path="url(#p.0)"><path fill="#000000" fill-opacity="0.0" d="m0 0l421.54855 0l0 142.08661l-421.54855 0z" fill-rule="evenodd"/><path fill="#00ff00" d="m288.9424 100.614944l41.795258 0l0 21.07087l-41.795258 0z" fill-rule="evenodd"/><path stroke="#000000" stroke-width="1.0" stroke-linejoin="round" stroke-linecap="butt" d="m288.9424 100.614944l41.795258 0l0 21.07087l-41.795258 0z" fill-rule="evenodd"/><path fill="#ff00ff" d="m288.9424 79.5358l41.795258 0l0 21.07087l-41.795258 0z" fill-rule="evenodd"/><path stroke="#000000" stroke-width="1.0" stroke-linejoin="round" stroke-linecap="butt" d="m288.9424 79.5358l41.795258 0l0 21.07087l-41.795258 0z" fill-rule="evenodd"/><path fill="#ff9900" d="m288.9424 58.456657l41.795258 0l0 21.070862l-41.795258 0z" fill-rule="evenodd"/><path stroke="#000000" stroke-width="1.0" stroke-linejoin="round" stroke-linecap="butt" d="m288.9424 58.456657l41.795258 0l0 21.070862l-41.795258 0z" fill-rule="evenodd"/><path fill="#000000" fill-opacity="0.0" d="m288.9424 37.99253l41.795258 0l0 21.070866l-41.795258 0z" fill-rule="evenodd"/><path stroke="#000000" stroke-width="1.0" stroke-linejoin="round" stroke-linecap="butt" d="m288.9424 37.99253l41.795258 0l0 21.070866l-41.795258 0z" fill-rule="evenodd"/><path fill="#000000" fill-opacity="0.0" d="m288.9424 16.913385l41.795258 0l0 21.070868l-41.795258 0z" fill-rule="evenodd"/><path stroke="#000000" stroke-width="1.0" stroke-linejoin="round" stroke-linecap="butt" d="m288.9424 16.913385l41.795258 0l0 21.070868l-41.795258 0z" fill-rule="evenodd"/><path fill="#ff9900" d="m247.1523 58.764164l41.795273 0l0 21.070866l-41.795273 0z" fill-rule="evenodd"/><path stroke="#000000" stroke-width="1.0" stroke-linejoin="round" stroke-linecap="butt" d="m247.1523 58.764164l41.795273 0l0 21.070866l-41.795273 0z" fill-rule="evenodd"/><path fill="#ff9900" d="m205.3622 58.764164l41.795288 0l0 21.070866l-41.795288 0z" fill-rule="evenodd"/><path stroke="#000000" stroke-width="1.0" stroke-linejoin="round" stroke-linecap="butt" d="m205.3622 58.764164l41.795288 0l0 21.070866l-41.795288 0z" fill-rule="evenodd"/><path fill="#ff00ff" d="m247.1523 79.534744l41.795273 0l0 21.07087l-41.795273 0z" fill-rule="evenodd"/><path stroke="#000000" stroke-width="1.0" stroke-linejoin="round" stroke-linecap="butt" d="m247.1523 79.534744l41.795273 0l0 21.07087l-41.795273 0z" fill-rule="evenodd"/><path fill="#ff00ff" d="m205.3622 79.534744l41.795288 0l0 21.07087l-41.795288 0z" fill-rule="evenodd"/><path stroke="#000000" stroke-width="1.0" stroke-linejoin="round" stroke-linecap="butt" d="m205.3622 79.534744l41.795288 0l0 21.07087l-41.795288 0z" fill-rule="evenodd"/><path fill="#00ff00" d="m247.1523 100.614944l41.795273 0l0 21.07087l-41.795273 0z" fill-rule="evenodd"/><path stroke="#000000" stroke-width="1.0" stroke-linejoin="round" stroke-linecap="butt" d="m247.1523 100.614944l41.795273 0l0 21.07087l-41.795273 0z" fill-rule="evenodd"/><path fill="#00ff00" d="m205.3622 100.614944l41.795288 0l0 21.07087l-41.795288 0z" fill-rule="evenodd"/><path stroke="#000000" stroke-width="1.0" stroke-linejoin="round" stroke-linecap="butt" d="m205.3622 100.614944l41.795288 0l0 21.07087l-41.795288 0z" fill-rule="evenodd"/><path fill="#00ff00" d="m330.7325 100.614944l41.795258 0l0 21.07087l-41.795258 0z" fill-rule="evenodd"/><path stroke="#000000" stroke-width="1.0" stroke-linejoin="round" stroke-linecap="butt" d="m330.7325 100.614944l41.795258 0l0 21.07087l-41.795258 0z" fill-rule="evenodd"/><path fill="#ff00ff" d="m330.7325 79.5358l41.795258 0l0 21.07087l-41.795258 0z" fill-rule="evenodd"/><path stroke="#000000" stroke-width="1.0" stroke-linejoin="round" stroke-linecap="butt" d="m330.7325 79.5358l41.795258 0l0 21.07087l-41.795258 0z" fill-rule="evenodd"/><path fill="#ff9900" d="m330.7325 58.456657l41.795258 0l0 21.070862l-41.795258 0z" fill-rule="evenodd"/><path stroke="#000000" stroke-width="1.0" stroke-linejoin="round" stroke-linecap="butt" d="m330.7325 58.456657l41.795258 0l0 21.070862l-41.795258 0z" fill-rule="evenodd"/><path fill="#000000" fill-opacity="0.0" d="m330.7325 37.99253l41.795258 0l0 21.070866l-41.795258 0z" fill-rule="evenodd"/><path stroke="#000000" stroke-width="1.0" stroke-linejoin="round" stroke-linecap="butt" d="m330.7325 37.99253l41.795258 0l0 21.070866l-41.795258 0z" fill-rule="evenodd"/><path fill="#000000" fill-opacity="0.0" d="m330.7325 16.913385l41.795258 0l0 21.070868l-41.795258 0z" fill-rule="evenodd"/><path stroke="#000000" stroke-width="1.0" stroke-linejoin="round" stroke-linecap="butt" d="m330.7325 16.913385l41.795258 0l0 21.070868l-41.795258 0z" fill-rule="evenodd"/><path fill="#00ff00" d="m372.5226 100.614944l41.795258 0l0 21.07087l-41.795258 0z" fill-rule="evenodd"/><path stroke="#000000" stroke-width="1.0" stroke-linejoin="round" stroke-linecap="butt" d="m372.5226 100.614944l41.795258 0l0 21.07087l-41.795258 0z" fill-rule="evenodd"/><path fill="#ff00ff" d="m372.5226 79.5358l41.795258 0l0 21.07087l-41.795258 0z" fill-rule="evenodd"/><path stroke="#000000" stroke-width="1.0" stroke-linejoin="round" stroke-linecap="butt" d="m372.5226 79.5358l41.795258 0l0 21.07087l-41.795258 0z" fill-rule="evenodd"/><path fill="#ff9900" d="m372.5226 58.456657l41.795258 0l0 21.070862l-41.795258 0z" fill-rule="evenodd"/><path stroke="#000000" stroke-width="1.0" stroke-linejoin="round" stroke-linecap="butt" d="m372.5226 58.456657l41.795258 0l0 21.070862l-41.795258 0z" fill-rule="evenodd"/><path fill="#000000" fill-opacity="0.0" d="m372.5226 37.99253l41.795258 0l0 21.070866l-41.795258 0z" fill-rule="evenodd"/><path stroke="#000000" stroke-width="1.0" stroke-linejoin="round" stroke-linecap="butt" d="m372.5226 37.99253l41.795258 0l0 21.070866l-41.795258 0z" fill-rule="evenodd"/><path fill="#000000" fill-opacity="0.0" d="m372.5226 16.913385l41.795258 0l0 21.070868l-41.795258 0z" fill-rule="evenodd"/><path stroke="#000000" stroke-width="1.0" stroke-linejoin="round" stroke-linecap="butt" d="m372.5226 16.913385l41.795258 0l0 21.070868l-41.795258 0z" fill-rule="evenodd"/><path fill="#f4cccc" d="m297.24118 36.188496l3.104126 -12.416456l18.920197 0l3.104126 12.416456z" fill-rule="evenodd"/><path stroke="#000000" stroke-width="1.0" stroke-linejoin="round" stroke-linecap="butt" d="m297.24118 36.188496l3.104126 -12.416456l18.920197 0l3.104126 12.416456z" fill-rule="evenodd"/><path fill="#f4cccc" d="m304.78076 23.716856l0 0c0 -2.7669144 2.2496033 -5.009941 5.024658 -5.009941c2.7750244 0 5.0246277 2.2430267 5.0246277 5.009941l-2.5049744 0c0 -1.3834572 -1.1280823 -2.5049706 -2.5196533 -2.5049706c-1.3916016 0 -2.5196838 1.1215134 -2.5196838 2.5049706z" fill-rule="evenodd"/><path stroke="#000000" stroke-width="1.0" stroke-linejoin="round" stroke-linecap="butt" d="m304.78076 23.716856l0 0c0 -2.7669144 2.2496033 -5.009941 5.024658 -5.009941c2.7750244 0 5.0246277 2.2430267 5.0246277 5.009941l-2.5049744 0c0 -1.3834572 -1.1280823 -2.5049706 -2.5196533 -2.5049706c-1.3916016 0 -2.5196838 1.1215134 -2.5196838 2.5049706z" fill-rule="evenodd"/><path fill="#d9ead3" d="m339.03128 36.188496l3.104126 -12.416456l18.920197 0l3.104126 12.416456z" fill-rule="evenodd"/><path stroke="#000000" stroke-width="1.0" stroke-linejoin="round" stroke-linecap="butt" d="m339.03128 36.188496l3.104126 -12.416456l18.920197 0l3.104126 12.416456z" fill-rule="evenodd"/><path fill="#cccccc" d="m346.57086 23.716856l0 0c0 -2.7669144 2.2496033 -5.009941 5.024658 -5.009941c2.7750244 0 5.0246277 2.2430267 5.0246277 5.009941l-2.5049744 0c0 -1.3834572 -1.1280823 -2.5049706 -2.5196533 -2.5049706c-1.3916016 0 -2.5196838 1.1215134 -2.5196838 2.5049706z" fill-rule="evenodd"/><path stroke="#000000" stroke-width="1.0" stroke-linejoin="round" stroke-linecap="butt" d="m346.57086 23.716856l0 0c0 -2.7669144 2.2496033 -5.009941 5.024658 -5.009941c2.7750244 0 5.0246277 2.2430267 5.0246277 5.009941l-2.5049744 0c0 -1.3834572 -1.1280823 -2.5049706 -2.5196533 -2.5049706c-1.3916016 0 -2.5196838 1.1215134 -2.5196838 2.5049706z" fill-rule="evenodd"/><path fill="#c9daf8" d="m379.49307 36.188496l3.1040955 -12.416456l18.920227 0l3.104126 12.416456z" fill-rule="evenodd"/><path stroke="#000000" stroke-width="1.0" stroke-linejoin="round" stroke-linecap="butt" d="m379.49307 36.188496l3.1040955 -12.416456l18.920227 0l3.104126 12.416456z" fill-rule="evenodd"/><path fill="#c9daf8" d="m387.03265 23.716856l0 0c0 -2.7669144 2.2496033 -5.009941 5.0246277 -5.009941c2.775055 0 5.024658 2.2430267 5.024658 5.009941l-2.5049744 0c0 -1.3834572 -1.1281128 -2.5049706 -2.5196838 -2.5049706c-1.391571 0 -2.5196533 1.1215134 -2.5196533 2.5049706z" fill-rule="evenodd"/><path stroke="#000000" stroke-width="1.0" stroke-linejoin="round" stroke-linecap="butt" d="m387.03265 23.716856l0 0c0 -2.7669144 2.2496033 -5.009941 5.0246277 -5.009941c2.775055 0 5.024658 2.2430267 5.024658 5.009941l-2.5049744 0c0 -1.3834572 -1.1281128 -2.5049706 -2.5196838 -2.5049706c-1.391571 0 -2.5196533 1.1215134 -2.5196533 2.5049706z" fill-rule="evenodd"/><path fill="#f4cccc" d="m297.24118 56.960133l3.104126 -12.416458l18.920197 0l3.104126 12.416458z" fill-rule="evenodd"/><path stroke="#000000" stroke-width="1.0" stroke-linejoin="round" stroke-linecap="butt" d="m297.24118 56.960133l3.104126 -12.416458l18.920197 0l3.104126 12.416458z" fill-rule="evenodd"/><path fill="#f4cccc" d="m304.78076 44.48849l0 0c0 -2.7669144 2.2496033 -5.009941 5.024658 -5.009941c2.7750244 0 5.0246277 2.2430267 5.0246277 5.009941l-2.5049744 0c0 -1.3834572 -1.1280823 -2.5049706 -2.5196533 -2.5049706c-1.3916016 0 -2.5196838 1.1215134 -2.5196838 2.5049706z" fill-rule="evenodd"/><path stroke="#000000" stroke-width="1.0" stroke-linejoin="round" stroke-linecap="butt" d="m304.78076 44.48849l0 0c0 -2.7669144 2.2496033 -5.009941 5.024658 -5.009941c2.7750244 0 5.0246277 2.2430267 5.0246277 5.009941l-2.5049744 0c0 -1.3834572 -1.1280823 -2.5049706 -2.5196533 -2.5049706c-1.3916016 0 -2.5196838 1.1215134 -2.5196838 2.5049706z" fill-rule="evenodd"/><path fill="#d9ead3" d="m339.03128 56.960133l3.104126 -12.416458l18.920197 0l3.104126 12.416458z" fill-rule="evenodd"/><path stroke="#000000" stroke-width="1.0" stroke-linejoin="round" stroke-linecap="butt" d="m339.03128 56.960133l3.104126 -12.416458l18.920197 0l3.104126 12.416458z" fill-rule="evenodd"/><path fill="#d9ead3" d="m346.57086 44.48849l0 0c0 -2.7669144 2.2496033 -5.009941 5.024658 -5.009941c2.7750244 0 5.0246277 2.2430267 5.0246277 5.009941l-2.5049744 0c0 -1.3834572 -1.1280823 -2.5049706 -2.5196533 -2.5049706c-1.3916016 0 -2.5196838 1.1215134 -2.5196838 2.5049706z" fill-rule="evenodd"/><path stroke="#000000" stroke-width="1.0" stroke-linejoin="round" stroke-linecap="butt" d="m346.57086 44.48849l0 0c0 -2.7669144 2.2496033 -5.009941 5.024658 -5.009941c2.7750244 0 5.0246277 2.2430267 5.0246277 5.009941l-2.5049744 0c0 -1.3834572 -1.1280823 -2.5049706 -2.5196533 -2.5049706c-1.3916016 0 -2.5196838 1.1215134 -2.5196838 2.5049706z" fill-rule="evenodd"/><path fill="#c9daf8" d="m380.82138 56.960133l3.104126 -12.416458l18.920197 0l3.104126 12.416458z" fill-rule="evenodd"/><path stroke="#000000" stroke-width="1.0" stroke-linejoin="round" stroke-linecap="butt" d="m380.82138 56.960133l3.104126 -12.416458l18.920197 0l3.104126 12.416458z" fill-rule="evenodd"/><path fill="#c9daf8" d="m388.36096 44.48849l0 0c0 -2.7669144 2.2496033 -5.009941 5.024658 -5.009941c2.7750244 0 5.0246277 2.2430267 5.0246277 5.009941l-2.5049744 0c0 -1.3834572 -1.1280823 -2.5049706 -2.5196533 -2.5049706c-1.3916016 0 -2.5196838 1.1215134 -2.5196838 2.5049706z" fill-rule="evenodd"/><path stroke="#000000" stroke-width="1.0" stroke-linejoin="round" stroke-linecap="butt" d="m388.36096 44.48849l0 0c0 -2.7669144 2.2496033 -5.009941 5.024658 -5.009941c2.7750244 0 5.0246277 2.2430267 5.0246277 5.009941l-2.5049744 0c0 -1.3834572 -1.1280823 -2.5049706 -2.5196533 -2.5049706c-1.3916016 0 -2.5196838 1.1215134 -2.5196838 2.5049706z" fill-rule="evenodd"/><path fill="#f4cccc" d="m330.74545 58.662212l0 20.818897l-41.826782 -20.850395z" fill-rule="evenodd"/><path stroke="#000000" stroke-width="1.0" stroke-linejoin="round" stroke-linecap="butt" d="m330.74545 58.662212l0 20.818897l-41.826782 -20.850395z" fill-rule="evenodd"/><path fill="#f4cccc" d="m330.74545 78.97363l0 20.818901l-41.826782 -20.850395z" fill-rule="evenodd"/><path stroke="#000000" stroke-width="1.0" stroke-linejoin="round" stroke-linecap="butt" d="m330.74545 78.97363l0 20.818901l-41.826782 -20.850395z" fill-rule="evenodd"/><path fill="#f4cccc" d="m330.74545 100.726776l0 20.818893l-41.826782 -20.850395z" fill-rule="evenodd"/><path stroke="#000000" stroke-width="1.0" stroke-linejoin="round" stroke-linecap="butt" d="m330.74545 100.726776l0 20.818893l-41.826782 -20.850395z" fill-rule="evenodd"/><path fill="#d9ead3" d="m372.53555 58.92338l0 20.818897l-41.826782 -20.850391z" fill-rule="evenodd"/><path stroke="#000000" stroke-width="1.0" stroke-linejoin="round" stroke-linecap="butt" d="m372.53555 58.92338l0 20.818897l-41.826782 -20.850391z" fill-rule="evenodd"/><path fill="#d9ead3" d="m372.53555 78.97258l0 20.818901l-41.826782 -20.850395z" fill-rule="evenodd"/><path stroke="#000000" stroke-width="1.0" stroke-linejoin="round" stroke-linecap="butt" d="m372.53555 78.97258l0 20.818901l-41.826782 -20.850395z" fill-rule="evenodd"/><path fill="#d9ead3" d="m372.53555 100.726776l0 20.818893l-41.826782 -20.850395z" fill-rule="evenodd"/><path stroke="#000000" stroke-width="1.0" stroke-linejoin="round" stroke-linecap="butt" d="m372.53555 100.726776l0 20.818893l-41.826782 -20.850395z" fill-rule="evenodd"/><path fill="#c9daf8" d="m414.3386 58.92338l0 20.818897l-41.826782 -20.850391z" fill-rule="evenodd"/><path stroke="#000000" stroke-width="1.0" stroke-linejoin="round" stroke-linecap="butt" d="m414.3386 58.92338l0 20.818897l-41.826782 -20.850391z" fill-rule="evenodd"/><path fill="#cfe2f3" d="m414.3386 79.90248l0 20.818901l-41.826782 -20.850395z" fill-rule="evenodd"/><path stroke="#000000" stroke-width="1.0" stroke-linejoin="round" stroke-linecap="butt" d="m414.3386 79.90248l0 20.818901l-41.826782 -20.850395z" fill-rule="evenodd"/><path fill="#c9daf8" d="m414.3386 100.67201l0 20.818893l-41.826782 -20.850388z" fill-rule="evenodd"/><path stroke="#000000" stroke-width="1.0" stroke-linejoin="round" stroke-linecap="butt" d="m414.3386 100.67201l0 20.818893l-41.826782 -20.850388z" fill-rule="evenodd"/><path fill="#000000" fill-opacity="0.0" d="m224.0027 69.2996l64.94487 0" fill-rule="evenodd"/><path stroke="#000000" stroke-width="1.0" stroke-linejoin="round" stroke-linecap="butt" d="m224.0027 69.2996l58.9449 0" fill-rule="evenodd"/><path fill="#000000" stroke="#000000" stroke-width="1.0" stroke-linecap="butt" d="m282.9476 70.95133l4.538086 -1.6517334l-4.538086 -1.6517334z" fill-rule="evenodd"/><path fill="#000000" fill-opacity="0.0" d="m223.99094 90.28389l64.944885 0" fill-rule="evenodd"/><path stroke="#000000" stroke-width="1.0" stroke-linejoin="round" stroke-linecap="butt" d="m223.99094 90.28388l58.944885 0" fill-rule="evenodd"/><path fill="#000000" stroke="#000000" stroke-width="1.0" stroke-linecap="butt" d="m282.93582 91.935616l4.538086 -1.6517334l-4.538086 -1.6517334z" fill-rule="evenodd"/><path fill="#000000" fill-opacity="0.0" d="m225.82599 111.15452l64.944885 0" fill-rule="evenodd"/><path stroke="#000000" stroke-width="1.0" stroke-linejoin="round" stroke-linecap="butt" d="m225.82599 111.15452l58.944885 0" fill-rule="evenodd"/><path fill="#000000" stroke="#000000" stroke-width="1.0" stroke-linecap="butt" d="m284.77087 112.80625l4.538086 -1.6517334l-4.538086 -1.6517334z" fill-rule="evenodd"/><path fill="#000000" fill-opacity="0.0" d="m310.01428 30.342705l0 28.22047" fill-rule="evenodd"/><path stroke="#000000" stroke-width="1.0" stroke-linejoin="round" stroke-linecap="butt" d="m310.01428 30.342705l0 22.22047" fill-rule="evenodd"/><path fill="#000000" stroke="#000000" stroke-width="1.0" stroke-linecap="butt" d="m308.36255 52.563175l1.6517334 4.5380974l1.6517334 -4.5380974z" fill-rule="evenodd"/><path fill="#000000" fill-opacity="0.0" d="m351.4378 30.342705l0 28.22047" fill-rule="evenodd"/><path stroke="#000000" stroke-width="1.0" stroke-linejoin="round" stroke-linecap="butt" d="m351.43777 30.342705l0 22.22047" fill-rule="evenodd"/><path fill="#000000" stroke="#000000" stroke-width="1.0" stroke-linecap="butt" d="m349.78604 52.563175l1.6517334 4.5380974l1.6517334 -4.5380974z" fill-rule="evenodd"/><path fill="#000000" fill-opacity="0.0" d="m393.4306 30.867155l0 28.220472" fill-rule="evenodd"/><path stroke="#000000" stroke-width="1.0" stroke-linejoin="round" stroke-linecap="butt" d="m393.4306 30.867157l0 22.22047" fill-rule="evenodd"/><path fill="#000000" stroke="#000000" stroke-width="1.0" stroke-linecap="butt" d="m391.77887 53.08763l1.6517334 4.5380974l1.6517334 -4.5380974z" fill-rule="evenodd"/><path fill="#ff9900" d="m39.871746 39.582767l31.77953 0l0 16.031494l-31.77953 0z" fill-rule="evenodd"/><path stroke="#000000" stroke-width="1.0" stroke-linejoin="round" stroke-linecap="butt" d="m39.871746 39.582767l31.77953 0l0 16.031494l-31.77953 0z" fill-rule="evenodd"/><path fill="#ff9900" d="m8.094488 39.582767l31.779528 0l0 16.031494l-31.779528 0z" fill-rule="evenodd"/><path stroke="#000000" stroke-width="1.0" stroke-linejoin="round" stroke-linecap="butt" d="m8.094488 39.582767l31.779528 0l0 16.031494l-31.779528 0z" fill-rule="evenodd"/><path fill="#ff00ff" d="m39.871746 55.37651l31.77953 0l0 16.031494l-31.77953 0z" fill-rule="evenodd"/><path stroke="#000000" stroke-width="1.0" stroke-linejoin="round" stroke-linecap="butt" d="m39.871746 55.37651l31.77953 0l0 16.031494l-31.77953 0z" fill-rule="evenodd"/><path fill="#ff00ff" d="m8.094488 55.37651l31.779528 0l0 16.031494l-31.779528 0z" fill-rule="evenodd"/><path stroke="#000000" stroke-width="1.0" stroke-linejoin="round" stroke-linecap="butt" d="m8.094488 55.37651l31.779528 0l0 16.031494l-31.779528 0z" fill-rule="evenodd"/><path fill="#00ff00" d="m39.871746 71.40568l31.77953 0l0 16.031494l-31.77953 0z" fill-rule="evenodd"/><path stroke="#000000" stroke-width="1.0" stroke-linejoin="round" stroke-linecap="butt" d="m39.871746 71.40568l31.77953 0l0 16.031494l-31.77953 0z" fill-rule="evenodd"/><path fill="#00ff00" d="m8.094488 71.40568l31.779528 0l0 16.031494l-31.779528 0z" fill-rule="evenodd"/><path stroke="#000000" stroke-width="1.0" stroke-linejoin="round" stroke-linecap="butt" d="m8.094488 71.40568l31.779528 0l0 16.031494l-31.779528 0z" fill-rule="evenodd"/><path fill="#000000" fill-opacity="0.0" d="m90.55114 65.4884l31.968506 0l0 16.125984l-31.968506 0z" fill-rule="evenodd"/><path stroke="#000000" stroke-width="1.0" stroke-linejoin="round" stroke-linecap="butt" d="m90.55114 65.4884l31.968506 0l0 16.125984l-31.968506 0z" fill-rule="evenodd"/><path fill="#000000" fill-opacity="0.0" d="m90.55114 49.36206l31.968506 0l0 16.125984l-31.968506 0z" fill-rule="evenodd"/><path stroke="#000000" stroke-width="1.0" stroke-linejoin="round" stroke-linecap="butt" d="m90.55114 49.36206l31.968506 0l0 16.125984l-31.968506 0z" fill-rule="evenodd"/><path fill="#000000" fill-opacity="0.0" d="m122.522575 65.4884l31.968513 0l0 16.125984l-31.968513 0z" fill-rule="evenodd"/><path stroke="#000000" stroke-width="1.0" stroke-linejoin="round" stroke-linecap="butt" d="m122.522575 65.4884l31.968513 0l0 16.125984l-31.968513 0z" fill-rule="evenodd"/><path fill="#000000" fill-opacity="0.0" d="m122.522575 49.36206l31.968513 0l0 16.125984l-31.968513 0z" fill-rule="evenodd"/><path stroke="#000000" stroke-width="1.0" stroke-linejoin="round" stroke-linecap="butt" d="m122.522575 49.36206l31.968513 0l0 16.125984l-31.968513 0z" fill-rule="evenodd"/><path fill="#000000" fill-opacity="0.0" d="m154.49402 65.4884l31.968506 0l0 16.125984l-31.968506 0z" fill-rule="evenodd"/><path stroke="#000000" stroke-width="1.0" stroke-linejoin="round" stroke-linecap="butt" d="m154.49402 65.4884l31.968506 0l0 16.125984l-31.968506 0z" fill-rule="evenodd"/><path fill="#000000" fill-opacity="0.0" d="m154.49402 49.36206l31.968506 0l0 16.125984l-31.968506 0z" fill-rule="evenodd"/><path stroke="#000000" stroke-width="1.0" stroke-linejoin="round" stroke-linecap="butt" d="m154.49402 49.36206l31.968506 0l0 16.125984l-31.968506 0z" fill-rule="evenodd"/><path fill="#f4cccc" d="m96.884674 64.10937l2.3749008 -9.499607l14.471817 0l2.3749008 9.499607z" fill-rule="evenodd"/><path stroke="#000000" stroke-width="1.0" stroke-linejoin="round" stroke-linecap="butt" d="m96.884674 64.10937l2.3749008 -9.499607l14.471817 0l2.3749008 9.499607z" fill-rule="evenodd"/><path fill="#f4cccc" d="m102.65197 54.56754l0 0c0 -2.1169167 1.7207947 -3.8330154 3.8435135 -3.8330154c2.1227188 0 3.8435135 1.7160988 3.8435135 3.8330154l-1.9165039 0l0 0c0 -1.0584602 -0.8627548 -1.9165077 -1.9270096 -1.9165077c-1.0642548 0 -1.9270096 0.8580475 -1.9270096 1.9165077z" fill-rule="evenodd"/><path stroke="#000000" stroke-width="1.0" stroke-linejoin="round" stroke-linecap="butt" d="m102.65197 54.56754l0 0c0 -2.1169167 1.7207947 -3.8330154 3.8435135 -3.8330154c2.1227188 0 3.8435135 1.7160988 3.8435135 3.8330154l-1.9165039 0l0 0c0 -1.0584602 -0.8627548 -1.9165077 -1.9270096 -1.9165077c-1.0642548 0 -1.9270096 0.8580475 -1.9270096 1.9165077z" fill-rule="evenodd"/><path fill="#d9ead3" d="m128.85611 64.10937l2.3749084 -9.499607l14.471802 0l2.3749084 9.499607z" fill-rule="evenodd"/><path stroke="#000000" stroke-width="1.0" stroke-linejoin="round" stroke-linecap="butt" d="m128.85611 64.10937l2.3749084 -9.499607l14.471802 0l2.3749084 9.499607z" fill-rule="evenodd"/><path fill="#cccccc" d="m134.6234 54.56754l0 0c0 -2.1169167 1.7208099 -3.8330154 3.843521 -3.8330154c2.1227112 0 3.843521 1.7160988 3.843521 3.8330154l-1.9165192 0l0 0c0 -1.0584602 -0.8627472 -1.9165077 -1.927002 -1.9165077c-1.0642548 0 -1.927002 0.8580475 -1.927002 1.9165077z" fill-rule="evenodd"/><path stroke="#000000" stroke-width="1.0" stroke-linejoin="round" stroke-linecap="butt" d="m134.6234 54.56754l0 0c0 -2.1169167 1.7208099 -3.8330154 3.843521 -3.8330154c2.1227112 0 3.843521 1.7160988 3.843521 3.8330154l-1.9165192 0l0 0c0 -1.0584602 -0.8627472 -1.9165077 -1.927002 -1.9165077c-1.0642548 0 -1.927002 0.8580475 -1.927002 1.9165077z" fill-rule="evenodd"/><path fill="#c9daf8" d="m159.81133 64.10937l2.3749084 -9.499607l14.471802 0l2.3749084 9.499607z" fill-rule="evenodd"/><path stroke="#000000" stroke-width="1.0" stroke-linejoin="round" stroke-linecap="butt" d="m159.81133 64.10937l2.3749084 -9.499607l14.471802 0l2.3749084 9.499607z" fill-rule="evenodd"/><path fill="#c9daf8" d="m165.57861 54.56754l0 0c0 -2.1169167 1.7208099 -3.8330154 3.843521 -3.8330154c2.1227112 0 3.843521 1.7160988 3.843521 3.8330154l-1.9165192 0l0 0c0 -1.0584602 -0.8627472 -1.9165077 -1.927002 -1.9165077c-1.0642548 0 -1.9270172 0.8580475 -1.9270172 1.9165077z" fill-rule="evenodd"/><path stroke="#000000" stroke-width="1.0" stroke-linejoin="round" stroke-linecap="butt" d="m165.57861 54.56754l0 0c0 -2.1169167 1.7208099 -3.8330154 3.843521 -3.8330154c2.1227112 0 3.843521 1.7160988 3.843521 3.8330154l-1.9165192 0l0 0c0 -1.0584602 -0.8627472 -1.9165077 -1.927002 -1.9165077c-1.0642548 0 -1.9270172 0.8580475 -1.9270172 1.9165077z" fill-rule="evenodd"/><path fill="#f4cccc" d="m96.884674 80.00045l2.3749008 -9.499611l14.471817 0l2.3749008 9.499611z" fill-rule="evenodd"/><path stroke="#000000" stroke-width="1.0" stroke-linejoin="round" stroke-linecap="butt" d="m96.884674 80.00045l2.3749008 -9.499611l14.471817 0l2.3749008 9.499611z" fill-rule="evenodd"/><path fill="#f4cccc" d="m102.65197 70.45862l0 0c0 -2.1169128 1.7207947 -3.8330154 3.8435135 -3.8330154c2.1227188 0 3.8435135 1.7161026 3.8435135 3.8330154l-1.9165039 0l0 0c0 -1.0584564 -0.8627548 -1.9165039 -1.9270096 -1.9165039c-1.0642548 0 -1.9270096 0.8580475 -1.9270096 1.9165039z" fill-rule="evenodd"/><path stroke="#000000" stroke-width="1.0" stroke-linejoin="round" stroke-linecap="butt" d="m102.65197 70.45862l0 0c0 -2.1169128 1.7207947 -3.8330154 3.8435135 -3.8330154c2.1227188 0 3.8435135 1.7161026 3.8435135 3.8330154l-1.9165039 0l0 0c0 -1.0584564 -0.8627548 -1.9165039 -1.9270096 -1.9165039c-1.0642548 0 -1.9270096 0.8580475 -1.9270096 1.9165039z" fill-rule="evenodd"/><path fill="#d9ead3" d="m128.85611 80.00045l2.3749084 -9.499611l14.471802 0l2.3749084 9.499611z" fill-rule="evenodd"/><path stroke="#000000" stroke-width="1.0" stroke-linejoin="round" stroke-linecap="butt" d="m128.85611 80.00045l2.3749084 -9.499611l14.471802 0l2.3749084 9.499611z" fill-rule="evenodd"/><path fill="#d9ead3" d="m134.6234 70.45862l0 0c0 -2.1169128 1.7208099 -3.8330154 3.843521 -3.8330154c2.1227112 0 3.843521 1.7161026 3.843521 3.8330154l-1.9165192 0l0 0c0 -1.0584564 -0.8627472 -1.9165039 -1.927002 -1.9165039c-1.0642548 0 -1.927002 0.8580475 -1.927002 1.9165039z" fill-rule="evenodd"/><path stroke="#000000" stroke-width="1.0" stroke-linejoin="round" stroke-linecap="butt" d="m134.6234 70.45862l0 0c0 -2.1169128 1.7208099 -3.8330154 3.843521 -3.8330154c2.1227112 0 3.843521 1.7161026 3.843521 3.8330154l-1.9165192 0l0 0c0 -1.0584564 -0.8627472 -1.9165039 -1.927002 -1.9165039c-1.0642548 0 -1.927002 0.8580475 -1.927002 1.9165039z" fill-rule="evenodd"/><path fill="#c9daf8" d="m160.82755 80.00045l2.3749084 -9.499611l14.471802 0l2.3749084 9.499611z" fill-rule="evenodd"/><path stroke="#000000" stroke-width="1.0" stroke-linejoin="round" stroke-linecap="butt" d="m160.82755 80.00045l2.3749084 -9.499611l14.471802 0l2.3749084 9.499611z" fill-rule="evenodd"/><path fill="#c9daf8" d="m166.59483 70.45862l0 0c0 -2.1169128 1.7208099 -3.8330154 3.843521 -3.8330154c2.1227112 0 3.843521 1.7161026 3.843521 3.8330154l-1.9165192 0l0 0c0 -1.0584564 -0.8627472 -1.9165039 -1.927002 -1.9165039c-1.0642548 0 -1.927002 0.8580475 -1.927002 1.9165039z" fill-rule="evenodd"/><path stroke="#000000" stroke-width="1.0" stroke-linejoin="round" stroke-linecap="butt" d="m166.59483 70.45862l0 0c0 -2.1169128 1.7208099 -3.8330154 3.843521 -3.8330154c2.1227112 0 3.843521 1.7161026 3.843521 3.8330154l-1.9165192 0l0 0c0 -1.0584564 -0.8627472 -1.9165039 -1.927002 -1.9165039c-1.0642548 0 -1.927002 0.8580475 -1.927002 1.9165039z" fill-rule="evenodd"/><path fill="#000000" fill-opacity="0.0" d="m67.84777 48.036747l46.425194 0l0 30.70866l-46.425194 0z" fill-rule="evenodd"/><path fill="#000000" d="m76.894646 65.99674l2.578125 -3.4843712l-2.28125 -3.1875l1.046875 0l1.21875 1.703125q0.375 0.53125 0.53125 0.828125q0.234375 -0.375 0.53125 -0.765625l1.34375 -1.765625l0.96875 0l-2.34375 3.140625l2.515625 3.5312462l-1.09375 0l-1.671875 -2.3749962q-0.140625 -0.21875 -0.296875 -0.453125q-0.21875 0.359375 -0.3125 0.5l-1.671875 2.3281212l-1.0625 0z" fill-rule="nonzero"/><path fill="#000000" fill-opacity="0.0" d="m182.51706 48.818897l46.4252 0l0 30.70866l-46.4252 0z" fill-rule="evenodd"/><path fill="#000000" d="m196.43893 62.85702l-4.40625 0l0 -0.765625l4.40625 0l0 0.765625zm0 2.0156288l-4.40625 0l0 -0.765625l4.40625 0l0 0.765625z" fill-rule="nonzero"/></g></svg>