<svg version="1.1" viewBox="0.0 0.0 421.5485564304462 142.08661417322836" fill="none" stroke="none" stroke-linecap="square" stroke-miterlimit="10" xmlns:xlink="http://www.w3.org/1999/xlink" xmlns="http://www.w3.org/2000/svg"><clipPath id="p.0"><path d="m0 0l421.54855 0l0 142.08661l-421.54855 0l0 -142.08661z" clip-rule="nonzero"/></clipPath><g clip-path="url(#p.0)"><path fill="#000000" fill-opacity="0.0" d="m0 0l421.54855 0l0 142.08661l-421.54855 0z" fill-rule="evenodd"/><path fill="#000000" fill-opacity="0.0" d="m13.490813 8.977691l740.9764 0l0 41.16535l-740.9764 0z" fill-rule="evenodd"/><path fill="#fdfdfd" d="m22.490814 17.97769l369.3445 0l0 22.4l-369.3445 0l0 -22.4z" fill-rule="nonzero"/><path fill="#000000" fill-opacity="0.0" d="m22.490814 18.589643l4.618515 0l0 21.862795l-4.618515 0l0 -21.862795z" fill-rule="nonzero"/><path fill="#010000" fill-opacity="0.0" d="m27.10933 18.589643l364.726 0l0 21.862795l-364.726 0l0 -21.862795z" fill-rule="nonzero"/><path fill="#111111" d="m66.92711 35.89769l-2.625 0l0 -10.140627l-3.15625 0.96875l0 -2.140625l5.5 -1.96875l0.28125 0l0 13.281252zm13.234909 -5.484377q0 2.750002 -1.140625 4.218752q-1.140625 1.453125 -3.328125 1.453125q-2.171875 0 -3.328125 -1.421875q-1.140625 -1.4375 -1.171875 -4.109377l0 -2.4375q0 -2.78125 1.15625 -4.21875q1.15625 -1.453125 3.3125 -1.453125q2.171875 0 3.3125 1.4375q1.15625 1.421875 1.1875 4.09375l0 2.4375zm-2.625 -2.671875q0 -1.65625 -0.453125 -2.40625q-0.453125 -0.75 -1.40625 -0.75q-0.9375 0 -1.375 0.71875q-0.4375 0.703125 -0.46875 2.234375l0 3.21875q0 1.6250019 0.4375 2.421877q0.4375 0.78125 1.421875 0.78125q0.96875 0 1.390625 -0.75q0.421875 -0.765625 0.453125 -2.328127l0 -3.140625zm56.287094 0.734375l3.28125 0l0 2.375l-3.28125 0l0 3.718752l-2.515625 0l0 -3.718752l-3.296875 0l0 -2.375l3.296875 0l0 -3.5625l2.515625 0l0 3.5625zm51.611603 0.90625l0.765625 -6.75l7.421875 0l0 2.203125l-5.265625 0l-0.328125 2.84375q0.9375 -0.5 2.0 -0.5q1.890625 0 2.953125 1.171875q1.078125 1.171875 1.078125 3.296875q0 1.2812519 -0.546875 2.296877q-0.53125 1.015625 -1.546875 1.578125q-1.0 0.5625 -2.375 0.5625q-1.203125 0 -2.234375 -0.484375q-1.03125 -0.5 -1.625 -1.375q-0.59375 -0.890625 -0.640625 -2.015625l2.609375 0q0.078125 0.828125 0.578125 1.296875q0.5 0.453125 1.296875 0.453125q0.890625 0 1.375 -0.640625q0.484375 -0.640625 0.484375 -1.8281269q0 -1.125 -0.5625 -1.71875q-0.546875 -0.609375 -1.5625 -0.609375q-0.9375 0 -1.53125 0.5l-0.25 0.234375l-2.09375 -0.515625zm62.193344 -0.90625l3.28125 0l0 2.375l-3.28125 0l0 3.718752l-2.515625 0l0 -3.718752l-3.296875 0l0 -2.375l3.296875 0l0 -3.5625l2.515625 0l0 3.5625zm53.892822 -0.375l1.40625 0q1.0 0 1.484375 -0.5q0.484375 -0.5 0.484375 -1.328125q0 -0.8125 -0.484375 -1.25q-0.46875 -0.453125 -1.3125 -0.453125q-0.75 0 -1.265625 0.421875q-0.515625 0.40625 -0.515625 1.078125l-2.625 0q0 -1.046875 0.5625 -1.859375q0.5625 -0.828125 1.5625 -1.296875q1.0 -0.46875 2.21875 -0.46875q2.109375 0 3.296875 1.015625q1.1875 1.0 1.1875 2.765625q0 0.921875 -0.5625 1.6875q-0.546875 0.765625 -1.453125 1.171875q1.125 0.40625 1.671875 1.203125q0.5625 0.796875 0.5625 1.8906269q0 1.765625 -1.296875 2.84375q-1.28125 1.0625 -3.40625 1.0625q-1.984375 0 -3.25 -1.046875q-1.265625 -1.046875 -1.265625 -2.78125l2.640625 0q0 0.75 0.5625 1.234375q0.5625 0.46875 1.375 0.46875q0.9375 0 1.46875 -0.5q0.53125 -0.5 0.53125 -1.3125q0 -1.9843769 -2.1875 -1.9843769l-1.390625 0l0 -2.0625zm62.958984 1.0l-8.140625 0l0 -2.15625l8.140625 0l0 2.15625zm0 3.953127l-8.140625 0l0 -2.156252l8.140625 0l0 2.156252zm13.994019 -10.562502l0 2.171875l-0.265625 0q-1.78125 0.03125 -2.875 0.9375q-1.078125 0.890625 -1.296875 2.5q1.0625 -1.078125 2.671875 -1.078125q1.71875 0 2.734375 1.25q1.03125 1.234375 1.03125 3.25q0 1.2968769 -0.5625 2.343752q-0.5625 1.046875 -1.59375 1.640625q-1.015625 0.578125 -2.3125 0.578125q-2.09375 0 -3.390625 -1.453125q-1.28125 -1.46875 -1.28125 -3.906252l0 -0.9375q0 -2.15625 0.8125 -3.8125q0.828125 -1.65625 2.34375 -2.5625q1.53125 -0.90625 3.546875 -0.921875l0.4375 0zm-2.578125 6.640625q-0.625 0 -1.15625 0.34375q-0.515625 0.328125 -0.765625 0.875l0 0.796875q0 1.3281269 0.515625 2.078127q0.53125 0.734375 1.46875 0.734375q0.84375 0 1.359375 -0.671875q0.53125 -0.671875 0.53125 -1.7343769q0 -1.078125 -0.53125 -1.75q-0.515625 -0.671875 -1.421875 -0.671875zm15.063049 1.28125q0 2.750002 -1.140625 4.218752q-1.140625 1.453125 -3.328125 1.453125q-2.171875 0 -3.328125 -1.421875q-1.140625 -1.4375 -1.171875 -4.109377l0 -2.4375q0 -2.78125 1.15625 -4.21875q1.15625 -1.453125 3.3125 -1.453125q2.171875 0 3.3125 1.4375q1.15625 1.421875 1.1875 4.09375l0 2.4375zm-2.625 -2.671875q0 -1.65625 -0.453125 -2.40625q-0.453125 -0.75 -1.40625 -0.75q-0.9375 0 -1.375 0.71875q-0.4375 0.703125 -0.46875 2.234375l0 3.21875q0 1.6250019 0.4375 2.421877q0.4375 0.78125 1.421875 0.78125q0.96875 0 1.390625 -0.75q0.421875 -0.765625 0.453125 -2.328127l0 -3.140625z" fill-rule="nonzero"/><path fill="#010000" fill-opacity="0.0" d="m391.83536 18.589643l0 0l0 21.862795l0 0l0 -21.862795z" fill-rule="nonzero"/><path fill="#cccccc" d="m36.259842 119.985565l12.401577 -49.6063l50.251965 0l12.401581 49.6063z" fill-rule="evenodd"/><path stroke="#000000" stroke-width="1.0" stroke-linejoin="round" stroke-linecap="butt" d="m36.259842 119.985565l12.401577 -49.6063l50.251965 0l12.401581 49.6063z" fill-rule="evenodd"/><path fill="#cccccc" d="m58.232933 86.91461l31.108932 0l0 22.400002l-31.108932 0l0 -22.400002z" fill-rule="nonzero"/><path fill="#000000" fill-opacity="0.0" d="m58.232933 87.9456l15.5499115 0l0 21.452866l-15.5499115 0l0 -21.452866z" fill-rule="nonzero"/><path fill="#010000" fill-opacity="0.0" d="m73.782845 87.9456l15.559021 0l0 21.452866l-15.559021 0l0 -21.452866z" fill-rule="nonzero"/><path fill="#000000" d="m86.3099 104.83461l-2.5625 0l0 -9.640625q-1.40625 1.3125 -3.3125 1.9375l0 -2.328125q1.015625 -0.328125 2.1875 -1.234375q1.171875 -0.921875 1.609375 -2.140625l2.078125 0l0 13.40625z" fill-rule="nonzero"/><path fill="#000000" fill-opacity="0.0" d="m89.341866 87.9456l0 0l0 21.452866l0 0l0 -21.452866z" fill-rule="nonzero"/><path fill="#cccccc" d="m58.779526 70.15879l0 0c0 -11.05439 6.7192535 -20.015747 15.007874 -20.015747c8.28862 0 15.007874 8.961357 15.007874 20.015747l-7.503937 0c0 -6.91008 -3.3596268 -12.51181 -7.503937 -12.51181c-4.14431 0 -7.503937 5.6017303 -7.503937 12.51181z" fill-rule="evenodd"/><path stroke="#000000" stroke-width="1.0" stroke-linejoin="round" stroke-linecap="butt" d="m58.779526 70.15879l0 0c0 -11.05439 6.7192535 -20.015747 15.007874 -20.015747c8.28862 0 15.007874 8.961357 15.007874 20.015747l-7.503937 0c0 -6.91008 -3.3596268 -12.51181 -7.503937 -12.51181c-4.14431 0 -7.503937 5.6017303 -7.503937 12.51181z" fill-rule="evenodd"/><path fill="#111111" d="m54.226917 95.32435l2.8233528 -3.219017l3.9812279 3.4918823l3.9812202 -3.4918823l2.8233566 3.219017l-3.5578384 3.1205368l3.5578384 3.1205292l-2.8233566 3.219017l-3.9812202 -3.4918823l-3.9812279 3.4918823l-2.8233528 -3.219017l3.5578384 -3.1205292z" fill-rule="evenodd"/><path stroke="#000000" stroke-width="1.0" stroke-linejoin="round" stroke-linecap="butt" d="m54.226917 95.32435l2.8233528 -3.219017l3.9812279 3.4918823l3.9812202 -3.4918823l2.8233566 3.219017l-3.5578384 3.1205368l3.5578384 3.1205292l-2.8233566 3.219017l-3.9812202 -3.4918823l-3.9812279 3.4918823l-2.8233528 -3.219017l3.5578384 -3.1205292z" fill-rule="evenodd"/><path fill="#cccccc" d="m151.24672 119.985565l12.401581 -49.6063l50.25197 0l12.401566 49.6063z" fill-rule="evenodd"/><path stroke="#000000" stroke-width="1.0" stroke-linejoin="round" stroke-linecap="butt" d="m151.24672 119.985565l12.401581 -49.6063l50.25197 0l12.401566 49.6063z" fill-rule="evenodd"/><path fill="#cccccc" d="m173.21982 86.91461l31.108932 0l0 22.400002l-31.108932 0l0 -22.400002z" fill-rule="nonzero"/><path fill="#000000" fill-opacity="0.0" d="m173.21982 87.9456l15.5499115 0l0 21.452866l-15.5499115 0l0 -21.452866z" fill-rule="nonzero"/><path fill="#010000" fill-opacity="0.0" d="m188.76973 87.9456l5.183304 0l0 21.452866l-5.183304 0l0 -21.452866z" fill-rule="nonzero"/><path fill="#000000" fill-opacity="0.0" d="m193.95303 87.9456l10.375717 0l0 21.452866l-10.375717 0l0 -21.452866z" fill-rule="nonzero"/><path fill="#000000" d="m199.76553 104.83461l0 -2.6875l-5.46875 0l0 -2.234375l5.796875 -8.484375l2.15625 0l0 8.46875l1.65625 0l0 2.25l-1.65625 0l0 2.6875l-2.484375 0zm0 -4.9375l0 -4.5625l-3.078125 4.5625l3.078125 0z" fill-rule="nonzero"/><path fill="#000000" fill-opacity="0.0" d="m204.32875 87.9456l0 0l0 21.452866l0 0l0 -21.452866z" fill-rule="nonzero"/><path fill="#cccccc" d="m173.7664 70.15879l0 0c0 -11.05439 6.7192535 -20.015747 15.007874 -20.015747c8.28862 0 15.007874 8.961357 15.007874 20.015747l-7.503937 0c0 -6.91008 -3.3596191 -12.51181 -7.503937 -12.51181c-4.1443024 0 -7.503937 5.6017303 -7.503937 12.51181z" fill-rule="evenodd"/><path stroke="#000000" stroke-width="1.0" stroke-linejoin="round" stroke-linecap="butt" d="m173.7664 70.15879l0 0c0 -11.05439 6.7192535 -20.015747 15.007874 -20.015747c8.28862 0 15.007874 8.961357 15.007874 20.015747l-7.503937 0c0 -6.91008 -3.3596191 -12.51181 -7.503937 -12.51181c-4.1443024 0 -7.503937 5.6017303 -7.503937 12.51181z" fill-rule="evenodd"/><path fill="#111111" d="m169.21379 95.32435l2.823349 -3.219017l3.9812317 3.4918823l3.9812317 -3.4918823l2.823349 3.219017l-3.557846 3.1205368l3.557846 3.1205292l-2.823349 3.219017l-3.9812317 -3.4918823l-3.9812317 3.4918823l-2.823349 -3.219017l3.557846 -3.1205292z" fill-rule="evenodd"/><path stroke="#000000" stroke-width="1.0" stroke-linejoin="round" stroke-linecap="butt" d="m169.21379 95.32435l2.823349 -3.219017l3.9812317 3.4918823l3.9812317 -3.4918823l2.823349 3.219017l-3.557846 3.1205368l3.557846 3.1205292l-2.823349 3.219017l-3.9812317 -3.4918823l-3.9812317 3.4918823l-2.823349 -3.219017l3.557846 -3.1205292z" fill-rule="evenodd"/><path fill="#cccccc" d="m266.23358 119.985565l12.401581 -49.6063l50.251984 0l12.401581 49.6063z" fill-rule="evenodd"/><path stroke="#000000" stroke-width="1.0" stroke-linejoin="round" stroke-linecap="butt" d="m266.23358 119.985565l12.401581 -49.6063l50.251984 0l12.401581 49.6063z" fill-rule="evenodd"/><path fill="#cccccc" d="m285.61047 86.91461l36.30136 0l0 22.400002l-36.30136 0l0 -22.400002z" fill-rule="nonzero"/><path fill="#000000" fill-opacity="0.0" d="m285.61047 87.9456l15.549927 0l0 21.452866l-15.549927 0l0 -21.452866z" fill-rule="nonzero"/><path fill="#010000" fill-opacity="0.0" d="m301.1604 87.9456l20.751434 0l0 21.452866l-20.751434 0l0 -21.452866z" fill-rule="nonzero"/><path fill="#000000" d="m308.50415 104.83461l-2.5625 0l0 -9.640625q-1.40625 1.3125 -3.3125 1.9375l0 -2.328125q1.015625 -0.328125 2.1875 -1.234375q1.171875 -0.921875 1.609375 -2.140625l2.078125 0l0 13.40625zm8.156952 -13.40625q1.9375 0 3.03125 1.375q1.296875 1.640625 1.296875 5.4375q0 3.796875 -1.3125 5.453125q-1.078125 1.375 -3.015625 1.375q-1.953125 0 -3.15625 -1.5q-1.1875 -1.5 -1.1875 -5.34375q0 -3.78125 1.3125 -5.4375q1.078125 -1.359375 3.03125 -1.359375zm0 2.125q-0.46875 0 -0.84375 0.296875q-0.359375 0.296875 -0.5625 1.0625q-0.25 0.984375 -0.25 3.328125q0 2.359375 0.234375 3.234375q0.234375 0.875 0.59375 1.171875q0.359375 0.296875 0.828125 0.296875q0.453125 0 0.8125 -0.296875q0.375 -0.296875 0.578125 -1.0625q0.265625 -0.984375 0.265625 -3.34375q0 -2.34375 -0.25 -3.21875q-0.234375 -0.875 -0.59375 -1.171875q-0.359375 -0.296875 -0.8125 -0.296875z" fill-rule="nonzero"/><path fill="#010000" fill-opacity="0.0" d="m321.91183 87.9456l0 0l0 21.452866l0 0l0 -21.452866z" fill-rule="nonzero"/><path fill="#cccccc" d="m288.7533 70.15879l0 0c0 -11.05439 6.7192383 -20.015747 15.007874 -20.015747c8.288605 0 15.007874 8.961357 15.007874 20.015747l-7.503937 0c0 -6.91008 -3.3596497 -12.51181 -7.503937 -12.51181c-4.1443176 0 -7.503937 5.6017303 -7.503937 12.51181z" fill-rule="evenodd"/><path stroke="#000000" stroke-width="1.0" stroke-linejoin="round" stroke-linecap="butt" d="m288.7533 70.15879l0 0c0 -11.05439 6.7192383 -20.015747 15.007874 -20.015747c8.288605 0 15.007874 8.961357 15.007874 20.015747l-7.503937 0c0 -6.91008 -3.3596497 -12.51181 -7.503937 -12.51181c-4.1443176 0 -7.503937 5.6017303 -7.503937 12.51181z" fill-rule="evenodd"/><path fill="#111111" d="m284.20068 95.32435l2.8233337 -3.219017l3.9812317 3.4918823l3.9812317 -3.4918823l2.8233643 3.219017l-3.5578613 3.1205368l3.5578613 3.1205292l-2.8233643 3.219017l-3.9812317 -3.4918823l-3.9812317 3.4918823l-2.8233337 -3.219017l3.5578308 -3.1205292z" fill-rule="evenodd"/><path stroke="#000000" stroke-width="1.0" stroke-linejoin="round" stroke-linecap="butt" d="m284.20068 95.32435l2.8233337 -3.219017l3.9812317 3.4918823l3.9812317 -3.4918823l2.8233643 3.219017l-3.5578613 3.1205368l3.5578613 3.1205292l-2.8233643 3.219017l-3.9812317 -3.4918823l-3.9812317 3.4918823l-2.8233337 -3.219017l3.5578308 -3.1205292z" fill-rule="evenodd"/></g></svg>